<?xml version="1.0" encoding="UTF-8"?>
<svg id="Layer_2" xmlns="http://www.w3.org/2000/svg" viewBox="0 0 178.04 178.1">
  <defs>
    <style>
      .cls-1 {
        fill: #f74f39;
      }
    </style>
  </defs>
  <g id="Layer_1-2" data-name="Layer_1">
    <path class="cls-1" d="M89.32.03c8.04.32,16.27-.39,24.48.44,29.39,2.98,53.56,23.21,61.6,51.6,1.75,6.18,2.64,12.5,2.64,18.93,0,11.88,0,23.76,0,35.64-.03,35.91-26.13,65.88-61.74,70.82-3.12.43-6.27.65-9.44.64-11.8-.04-23.59,0-35.39-.02-35.92-.03-65.88-26.13-70.83-61.73C.2,113.23-.01,110.08,0,106.91c.04-11.8,0-23.59.02-35.39C.05,35.61,26.15,5.63,61.76.7c9.09-1.26,18.26-.38,27.56-.67ZM45.35,100.95c-.2,1.72,1.16,3.28,2.74,4.69,8.59,7.68,17.14,15.41,25.82,22.98,5.38,4.69,12.69,3.58,16.58-2.39,1.9-2.91,3.55-5.98,5.27-9,7.07-12.37,14.12-24.75,21.18-37.12,4.27-7.48,8.59-14.93,12.81-22.44,2.51-4.47.17-9.37-4.74-9.91-3.45-.38-5.42,1.73-7.01,4.51-12.08,21.24-24.21,42.46-36.31,63.69-.55.97-.87,1.76-2.11.59-3.08-2.89-6.27-5.67-9.44-8.48-4.65-4.13-9.29-8.26-13.99-12.34-2.09-1.82-4.46-2.48-7.11-1.14-2.34,1.18-3.65,3.03-3.71,6.35Z"/>
  </g>
</svg>